<svg width="40" height="40" viewBox="0 0 40 40" fill="none" xmlns="http://www.w3.org/2000/svg">
  <defs>
    <linearGradient id="logoGrad" x1="0%" y1="0%" x2="100%" y2="100%">
      <stop offset="0%" stop-color="#4F46E5" />
      <stop offset="100%" stop-color="#EC4899" />
    </linearGradient>
    <linearGradient id="glowGrad" x1="0%" y1="0%" x2="100%" y2="100%">
      <stop offset="0%" stop-color="#8B5CF6" />
      <stop offset="100%" stop-color="#3B82F6" />
    </linearGradient>
  </defs>

  <!-- Background glow -->
  <circle cx="20" cy="20" r="18" fill="url(#glowGrad)" opacity="0.15" />

  <!-- Document Sheet -->
  <path d="M11 7C11 5.34315 12.3431 4 14 4H23.5L29 9.5V33C29 34.6569 27.6569 36 26 36H14C12.3431 36 11 34.6569 11 33V7Z" fill="url(#logoGrad)" />
  
  <!-- Folder corner overlay -->
  <path d="M23.5 4V9.5H29L23.5 4Z" fill="#FFFFFF" opacity="0.35" />

  <!-- Line items inside sheet -->
  <rect x="15" y="14" width="10" height="2" rx="1" fill="#FFFFFF" opacity="0.8" />
  <rect x="15" y="19" width="8" height="2" rx="1" fill="#FFFFFF" opacity="0.8" />
  <rect x="15" y="24" width="6" height="2" rx="1" fill="#FFFFFF" opacity="0.8" />

  <!-- Sparkles symbol (AI symbol) on the top right -->
  <path d="M27.5 15.5C27.5 15.5 28.2 16.2 28.2 16.9C28.2 16.9 28.2 16.2 28.9 16.2C28.9 16.2 28.2 16.2 28.2 15.5C28.2 15.5 28.2 16.2 27.5 15.5Z" fill="#FFFFFF" />
  <path d="M23.5 18.5C23.5 18.5 24.7 19.7 24.7 20.9C24.7 20.9 24.7 19.7 25.9 19.7C25.9 19.7 24.7 19.7 24.7 18.5C24.7 18.5 24.7 19.7 23.5 18.5Z" fill="#FFFFFF" />
</svg>